<svg width="1399" height="560" viewBox="0 0 1399 560" fill="none" xmlns="http://www.w3.org/2000/svg">
<mask id="mask0_11_541" style="mask-type:luminance" maskUnits="userSpaceOnUse" x="0" y="0" width="1399" height="560">
<path d="M1398.67 0H0V560H1398.67V0Z" fill="white"/>
</mask>
<g mask="url(#mask0_11_541)">
<path d="M1103.68 350L1129.95 407.347H1115.49L1098.78 365.501L1103.68 350ZM1086.41 401.966C1085.98 403.037 1085.9 403.947 1086.17 404.697C1086.44 405.447 1086.9 406.036 1087.54 406.464C1088.18 406.839 1088.82 407.026 1089.47 407.026H1090.19V407.829H1073V407.026C1073 407.026 1073.13 407.026 1073.4 407.026C1073.62 407.026 1073.72 407.026 1073.72 407.026C1074.95 407.026 1076.21 406.651 1077.5 405.902C1078.84 405.099 1079.93 403.787 1080.79 401.966H1086.41ZM1103.68 350L1104 359.799L1084.08 407.588H1078.22L1099.02 360.522C1099.18 360.2 1099.45 359.611 1099.83 358.755C1100.25 357.844 1100.68 356.827 1101.11 355.703C1101.59 354.578 1102.02 353.507 1102.4 352.49C1102.77 351.419 1102.96 350.589 1102.96 350H1103.68ZM1112.12 388.714V392.087H1088.5V388.714H1112.12ZM1113.32 401.966H1127.38C1128.29 403.787 1129.38 405.099 1130.67 405.902C1131.95 406.651 1133.21 407.026 1134.44 407.026C1134.44 407.026 1134.55 407.026 1134.76 407.026C1134.98 407.026 1135.09 407.026 1135.09 407.026V407.829H1109.54V407.026H1110.27C1111.34 407.026 1112.28 406.598 1113.08 405.741C1113.88 404.831 1113.96 403.572 1113.32 401.966Z" fill="white"/>
<path d="M1155.07 350.482C1156.14 350.482 1157.45 350.535 1159 350.643C1160.61 350.75 1162.24 350.91 1163.9 351.124C1165.62 351.285 1167.09 351.473 1168.32 351.687C1169.61 351.847 1170.49 352.035 1170.97 352.249L1170.01 363.092H1169.21C1169.21 360.308 1168.16 358.085 1166.07 356.425C1164.04 354.712 1161.31 353.855 1157.88 353.855C1154.77 353.855 1152.26 354.605 1150.33 356.104C1148.46 357.603 1147.47 359.424 1147.36 361.566C1147.31 363.172 1147.81 364.564 1148.88 365.742C1149.96 366.92 1151.32 368.018 1152.98 369.035L1168.32 378.995C1170.78 380.387 1172.63 382.208 1173.86 384.457C1175.15 386.706 1175.71 389.329 1175.55 392.328C1175.28 397.575 1173.27 401.672 1169.53 404.617C1165.78 407.508 1160.69 408.954 1154.27 408.954C1151.91 408.954 1149.61 408.74 1147.36 408.311C1145.16 407.936 1143.21 407.401 1141.5 406.705C1139.78 405.955 1138.42 405.072 1137.4 404.054C1136.97 402.876 1136.78 401.457 1136.84 399.797C1136.89 398.138 1137.13 396.451 1137.56 394.737C1138.04 393.024 1138.63 391.605 1139.33 390.481H1140.05C1139.84 393.211 1140.32 395.755 1141.5 398.111C1142.73 400.413 1144.49 402.261 1146.8 403.653C1149.15 404.991 1151.94 405.634 1155.15 405.58C1158.68 405.527 1161.41 404.643 1163.34 402.93C1165.27 401.163 1166.23 399.048 1166.23 396.585C1166.23 394.925 1165.72 393.426 1164.71 392.087C1163.74 390.748 1162.14 389.463 1159.89 388.232L1145.83 378.915C1142.99 377.308 1140.93 375.247 1139.65 372.73C1138.36 370.213 1137.85 367.483 1138.12 364.538C1138.39 361.753 1139.22 359.317 1140.61 357.229C1142 355.087 1143.9 353.427 1146.31 352.249C1148.78 351.071 1151.7 350.482 1155.07 350.482ZM1171.05 351.285L1170.89 352.972H1161.41V351.285H1171.05Z" fill="white"/>
<path d="M1200.39 351.606V407.829H1188.34V351.606H1200.39ZM1221.59 404.376L1223.52 407.829H1200.15V404.376H1221.59ZM1218.62 378.433V381.806H1200.15V378.433H1218.62ZM1222.56 351.606V355.06H1200.15V351.606H1222.56ZM1227.46 391.364L1223.76 407.829H1208.02L1210.91 404.376C1213.59 404.376 1215.95 403.867 1217.98 402.85C1220.01 401.779 1221.75 400.279 1223.2 398.352C1224.65 396.371 1225.8 394.041 1226.65 391.364H1227.46ZM1218.62 381.646V389.356H1217.82V388.714C1217.82 386.732 1217.18 385.099 1215.89 383.814C1214.61 382.529 1212.97 381.86 1210.99 381.806V381.646H1218.62ZM1218.62 370.883V378.593H1210.99V378.433C1212.97 378.379 1214.61 377.71 1215.89 376.425C1217.18 375.086 1217.82 373.426 1217.82 371.445V370.883H1218.62ZM1222.56 354.819V364.216H1221.75V363.253C1221.75 360.789 1221.01 358.808 1219.51 357.309C1218.06 355.81 1216.08 355.033 1213.56 354.98V354.819H1222.56ZM1222.56 350.161V352.49L1212.76 351.606C1213.94 351.606 1215.17 351.526 1216.45 351.365C1217.79 351.205 1219.02 351.017 1220.15 350.803C1221.27 350.589 1222.08 350.375 1222.56 350.161ZM1188.58 401.966V407.829H1182.16V407.026C1182.16 407.026 1182.32 407.026 1182.64 407.026C1183.01 407.026 1183.2 407.026 1183.2 407.026C1184.59 407.026 1185.77 406.544 1186.74 405.58C1187.75 404.563 1188.29 403.358 1188.34 401.966H1188.58ZM1188.58 357.47H1188.34C1188.29 356.077 1187.75 354.899 1186.74 353.936C1185.77 352.918 1184.59 352.41 1183.2 352.41C1183.2 352.41 1183.01 352.41 1182.64 352.41C1182.32 352.41 1182.16 352.41 1182.16 352.41V351.606H1188.58V357.47Z" fill="white"/>
<path d="M1257.97 350L1284.23 407.347H1269.77L1253.07 365.501L1257.97 350ZM1240.7 401.966C1240.27 403.037 1240.19 403.947 1240.46 404.697C1240.72 405.447 1241.18 406.036 1241.82 406.464C1242.46 406.839 1243.11 407.026 1243.75 407.026H1244.47V407.829H1227.28V407.026C1227.28 407.026 1227.42 407.026 1227.69 407.026C1227.9 407.026 1228.01 407.026 1228.01 407.026C1229.24 407.026 1230.5 406.651 1231.78 405.902C1233.12 405.099 1234.22 403.787 1235.07 401.966H1240.7ZM1257.97 350L1258.29 359.799L1238.37 407.588H1232.5L1253.31 360.522C1253.47 360.2 1253.74 359.611 1254.11 358.755C1254.54 357.844 1254.97 356.827 1255.4 355.703C1255.88 354.578 1256.31 353.507 1256.68 352.49C1257.06 351.419 1257.24 350.589 1257.24 350H1257.97ZM1266.4 388.714V392.087H1242.79V388.714H1266.4ZM1267.6 401.966H1281.66C1282.57 403.787 1283.67 405.099 1284.95 405.902C1286.24 406.651 1287.5 407.026 1288.73 407.026C1288.73 407.026 1288.83 407.026 1289.05 407.026C1289.26 407.026 1289.37 407.026 1289.37 407.026V407.829H1263.83V407.026H1264.55C1265.62 407.026 1266.56 406.598 1267.36 405.741C1268.17 404.831 1268.25 403.572 1267.6 401.966Z" fill="white"/>
<path d="M1295.78 350.402L1347.02 399.235L1347.99 408.954L1296.74 360.2L1295.78 350.402ZM1296.18 402.127V407.829H1289.51V407.026C1289.51 407.026 1289.76 407.026 1290.24 407.026C1290.72 407.026 1290.99 407.026 1291.04 407.026C1292.38 407.026 1293.53 406.544 1294.49 405.58C1295.46 404.617 1295.94 403.465 1295.94 402.127H1296.18ZM1307.43 402.127C1307.43 403.465 1307.91 404.617 1308.87 405.58C1309.83 406.544 1310.99 407.026 1312.32 407.026C1312.38 407.026 1312.65 407.026 1313.13 407.026C1313.61 407.026 1313.85 407.026 1313.85 407.026V407.829H1307.18V402.127H1307.43ZM1295.78 350.402L1307.34 362.69L1307.43 407.829H1295.94V360.441C1295.94 357.443 1295.78 355.033 1295.46 353.213C1295.14 351.339 1294.98 350.402 1294.98 350.402H1295.78ZM1347.75 351.606V398.673C1347.75 400.654 1347.83 402.448 1347.99 404.054C1348.15 405.607 1348.31 406.812 1348.47 407.669C1348.63 408.525 1348.71 408.954 1348.71 408.954H1347.99L1336.34 395.942V351.606H1347.75ZM1354.17 351.606V352.41C1354.17 352.41 1353.93 352.41 1353.45 352.41C1352.97 352.41 1352.72 352.41 1352.72 352.41C1351.39 352.41 1350.24 352.891 1349.27 353.855C1348.31 354.766 1347.8 355.917 1347.75 357.309H1347.5V351.606H1354.17ZM1329.83 351.606H1336.5V357.309H1336.34C1336.29 355.917 1335.78 354.766 1334.81 353.855C1333.9 352.891 1332.75 352.41 1331.36 352.41C1331.36 352.41 1331.12 352.41 1330.64 352.41C1330.16 352.41 1329.89 352.41 1329.83 352.41V351.606Z" fill="white"/>
<mask id="mask1_11_541" style="mask-type:luminance" maskUnits="userSpaceOnUse" x="-1" y="0" width="1400" height="560">
<path d="M-0.00585938 0H1398.66V560H-0.00585938V0Z" fill="white"/>
</mask>
<g mask="url(#mask1_11_541)">
<path d="M451.643 94.904C391.152 65.5493 323.647 50.0347 256.405 50.0347C189.175 50.0347 121.668 65.5493 61.1787 94.904L41.7734 104.315V258.084C41.7734 337.015 84.2387 410.561 152.592 450.027L256.405 509.965L360.229 450.027C404.713 424.343 438.217 384.216 456.203 337.573H450.504C432.777 382.288 400.396 420.717 357.58 445.437L256.405 503.851L155.241 445.437C88.5201 406.916 47.0734 335.128 47.0734 258.084V107.632L63.4881 99.6627C123.269 70.6573 189.969 55.3333 256.405 55.3333C322.851 55.3333 389.552 70.6573 449.332 99.6627L465.748 107.632V199.64H471.047V104.315L451.643 94.904Z" fill="white"/>
</g>
<mask id="mask2_11_541" style="mask-type:luminance" maskUnits="userSpaceOnUse" x="-1" y="0" width="1400" height="560">
<path d="M-0.00585938 0H1398.66V560H-0.00585938V0Z" fill="white"/>
</mask>
<g mask="url(#mask2_11_541)">
<path d="M808.594 222.623C777.374 222.623 757.201 240.009 757.201 266.92C757.201 293.829 776.877 311.217 807.326 311.217C823.315 311.217 835.886 303.985 841.811 291.376L842.373 290.183H847.05L846.925 309.189H861.254V263.549H797.367V277.132H839.082L838.035 279.937C834.949 288.224 823.391 293.579 808.594 293.579C790.678 293.579 778.639 282.865 778.639 266.92C778.639 250.972 791.186 240.259 809.861 240.259C825.193 240.259 835.53 245.164 837.079 252.931H859.785C858.41 234.444 838.627 222.623 808.594 222.623ZM807.326 315.373C774.859 315.373 753.045 295.901 753.045 266.92C753.045 237.937 775.367 218.465 808.594 218.465C841.743 218.465 864.017 233.152 864.017 255.009V257.088H833.125V255.009C833.125 248.673 823.775 244.416 809.861 244.416C793.419 244.416 782.797 253.249 782.797 266.92C782.797 280.589 792.922 289.423 808.594 289.423C819.501 289.423 828.551 286.252 832.523 281.289H793.211V259.392H865.41V313.345H842.741L842.842 298.015C835.498 309.117 822.85 315.373 807.326 315.373Z" fill="white"/>
</g>
<mask id="mask3_11_541" style="mask-type:luminance" maskUnits="userSpaceOnUse" x="-1" y="0" width="1400" height="560">
<path d="M-0.00585938 0H1398.66V560H-0.00585938V0Z" fill="white"/>
</mask>
<g mask="url(#mask3_11_541)">
<path d="M881.877 224.65V265.145C881.877 297.438 895.732 311.217 928.2 311.217C960.67 311.217 974.524 297.438 974.524 265.145V224.65H953.086V268.948C953.086 283.736 943.782 292.566 928.2 292.566C912.618 292.566 903.314 283.736 903.314 268.948V224.65H881.877ZM928.2 315.373C893.289 315.373 877.721 299.882 877.721 265.145V220.493H907.47V268.948C907.47 281.497 914.833 288.409 928.2 288.409C941.568 288.409 948.929 281.497 948.929 268.948V220.493H978.681V265.145C978.681 299.882 963.113 315.373 928.2 315.373Z" fill="white"/>
</g>
<mask id="mask4_11_541" style="mask-type:luminance" maskUnits="userSpaceOnUse" x="-1" y="0" width="1400" height="560">
<path d="M-0.00585938 0H1398.66V560H-0.00585938V0Z" fill="white"/>
</mask>
<g mask="url(#mask4_11_541)">
<path d="M1042.79 272.443H1067.79L1055.34 249.917L1042.79 272.443ZM1074.83 276.601H1035.72L1055.35 241.349L1074.83 276.601ZM1093.06 309.189H1118.45L1067.85 224.65H1042.71L992.109 309.189H1017.51L1025.87 294.238H1084.69L1093.06 309.189ZM1125.79 313.346H1090.62L1082.25 298.394H1028.31L1019.95 313.346H984.776L1040.35 220.494H1070.21L1125.79 313.346Z" fill="white"/>
</g>
<mask id="mask5_11_541" style="mask-type:luminance" maskUnits="userSpaceOnUse" x="-1" y="0" width="1400" height="560">
<path d="M-0.00585938 0H1398.66V560H-0.00585938V0Z" fill="white"/>
</mask>
<g mask="url(#mask5_11_541)">
<path d="M1165.98 254.07H1205.61C1210.04 254.07 1210.88 252.53 1210.88 249.686C1210.88 246.83 1210.02 245.177 1205.61 245.177H1165.89L1165.98 254.07ZM1205.61 258.228H1161.86L1161.7 241.021H1205.61C1213.4 241.021 1215.04 245.733 1215.04 249.686C1215.04 255.354 1211.87 258.228 1205.61 258.228ZM1216.33 309.189H1242.94C1227.11 277.501 1217.36 271.826 1200.79 270.768L1198.84 270.642V266.39L1210.02 266.236C1226.6 266.236 1236.48 258.674 1236.48 246.012C1236.48 232.836 1226.35 224.65 1210.05 224.65H1140.53V309.189H1161.96L1161.84 273.458H1180.4C1195.57 273.458 1200.53 280.9 1216.33 309.189ZM1249.61 313.346H1213.89L1213.3 312.28C1195.39 280.181 1191.91 277.614 1180.4 277.614H1166.01L1166.13 313.346H1136.38V220.493H1210.05C1228.63 220.493 1240.63 230.51 1240.63 246.012C1240.63 259.349 1231.42 268.205 1216.17 270.038C1229.23 275.762 1237.57 288.632 1248.15 310.357L1249.61 313.346Z" fill="white"/>
</g>
<mask id="mask6_11_541" style="mask-type:luminance" maskUnits="userSpaceOnUse" x="-1" y="0" width="1400" height="560">
<path d="M-0.00585938 0H1398.66V560H-0.00585938V0Z" fill="white"/>
</mask>
<g mask="url(#mask6_11_541)">
<path d="M1288.08 287.395H1303.11C1319.72 287.395 1327.13 281.08 1327.13 266.919C1327.13 252.758 1319.72 246.443 1303.11 246.443H1288.08V287.395ZM1303.11 291.552H1283.92V242.287H1303.11C1322.07 242.287 1331.29 250.344 1331.29 266.919C1331.29 283.495 1322.07 291.552 1303.11 291.552ZM1262.48 309.19H1303.11C1335.1 309.19 1352.72 294.178 1352.72 266.919C1352.72 239.662 1335.1 224.65 1303.11 224.65H1262.48V309.19ZM1303.11 313.346H1258.33V220.494H1303.11C1337.28 220.494 1356.88 237.415 1356.88 266.919C1356.88 296.424 1337.28 313.346 1303.11 313.346Z" fill="white"/>
</g>
<mask id="mask7_11_541" style="mask-type:luminance" maskUnits="userSpaceOnUse" x="-1" y="0" width="1400" height="560">
<path d="M-0.00585938 0H1398.66V560H-0.00585938V0Z" fill="white"/>
</mask>
<g mask="url(#mask7_11_541)">
<path d="M464.559 245.379H429.081V223.586H525.759V245.379H490.153V312.281H464.559V296.019V245.379Z" fill="white"/>
</g>
<mask id="mask8_11_541" style="mask-type:luminance" maskUnits="userSpaceOnUse" x="-1" y="0" width="1400" height="560">
<path d="M-0.00585938 0H1398.66V560H-0.00585938V0Z" fill="white"/>
</mask>
<g mask="url(#mask8_11_541)">
<path d="M244.213 292.094V228.082L257.676 228.09C275.321 228.09 289.674 242.443 289.674 260.088C289.674 277.732 275.321 292.086 257.673 292.086L244.213 292.094ZM257.686 207.344L223.468 207.334V312.852L257.676 312.831C286.766 312.831 310.42 289.167 310.42 260.087C310.42 231.008 286.766 207.344 257.686 207.344Z" fill="white"/>
</g>
<mask id="mask9_11_541" style="mask-type:luminance" maskUnits="userSpaceOnUse" x="-1" y="0" width="1400" height="560">
<path d="M-0.00585938 0H1398.66V560H-0.00585938V0Z" fill="white"/>
</mask>
<g mask="url(#mask9_11_541)">
<path d="M590.973 274.522L575.007 245.632L558.915 274.522H590.973ZM561.195 222.572H588.693L641.783 311.267H611.499L603.137 296.316H546.751L538.387 311.267H508.105L561.195 222.572Z" fill="white"/>
</g>
<mask id="mask10_11_541" style="mask-type:luminance" maskUnits="userSpaceOnUse" x="-1" y="0" width="1400" height="560">
<path d="M-0.00585938 0H1398.66V560H-0.00585938V0Z" fill="white"/>
</mask>
<g mask="url(#mask10_11_541)">
<path d="M640.002 281.618H667.245C667.245 287.572 674.213 291.501 690.431 291.501C706.905 291.501 715.141 289.601 715.141 285.038C715.141 267.046 642.282 293.782 642.282 249.56C642.282 231.315 662.683 220.544 691.191 220.544C720.209 220.544 738.327 233.848 738.327 252.222H712.479C712.479 246.266 705.51 242.338 690.813 242.338C676.874 242.338 668.131 244.238 668.131 248.799C668.131 265.399 740.862 241.704 740.862 284.278C740.862 303.791 722.995 313.295 690.053 313.295C658.881 313.295 640.002 299.991 640.002 281.618Z" fill="white"/>
</g>
<mask id="mask11_11_541" style="mask-type:luminance" maskUnits="userSpaceOnUse" x="-1" y="0" width="1400" height="560">
<path d="M-0.00585938 0H1398.66V560H-0.00585938V0Z" fill="white"/>
</mask>
<g mask="url(#mask11_11_541)">
<path d="M190.012 181.306C185.868 181.306 182.488 177.926 182.488 173.782C182.488 169.627 185.868 166.258 190.012 166.258C194.166 166.258 197.536 169.627 197.536 173.782C197.536 177.926 194.166 181.306 190.012 181.306ZM335.862 255.154L348.358 234.278C337.124 194.811 300.754 165.834 257.741 165.834H202.665C200.026 161.626 195.342 158.839 190.012 158.839C181.766 158.839 175.069 165.526 175.069 173.782C175.069 182.026 181.766 188.724 190.012 188.724C195.342 188.724 200.016 185.926 202.665 181.73H257.741C299.205 181.73 333.232 215.779 335.862 255.154Z" fill="white"/>
</g>
<mask id="mask12_11_541" style="mask-type:luminance" maskUnits="userSpaceOnUse" x="-1" y="0" width="1400" height="560">
<path d="M-0.00585938 0H1398.66V560H-0.00585938V0Z" fill="white"/>
</mask>
<g mask="url(#mask12_11_541)">
<path d="M398.512 274.522L382.546 245.632L366.454 274.522H398.512ZM368.734 222.572H396.23L449.322 311.267H419.038L410.676 296.316H354.29L345.926 311.267H315.644L368.734 222.572Z" fill="white"/>
</g>
<mask id="mask13_11_541" style="mask-type:luminance" maskUnits="userSpaceOnUse" x="-1" y="0" width="1400" height="560">
<path d="M-0.00585938 0H1398.66V560H-0.00585938V0Z" fill="white"/>
</mask>
<g mask="url(#mask13_11_541)">
<path d="M436.605 191.966C432.449 191.966 429.081 188.598 429.081 184.442C429.081 180.288 432.449 176.918 436.605 176.918C440.761 176.918 444.129 180.288 444.129 184.442C444.129 188.598 440.761 191.966 436.605 191.966ZM304.185 335.937C308.827 335.937 312.59 339.701 312.59 344.342C312.59 348.984 308.827 352.746 304.185 352.746C299.544 352.746 295.782 348.984 295.782 344.342C295.782 339.701 299.544 335.937 304.185 335.937ZM444.553 171.789V120.91L440.081 118.738C383.173 91.1211 319.661 76.5278 256.416 76.5278C193.16 76.5278 129.65 91.1211 72.751 118.738L68.2683 120.91V223.229H182.064V354.257H218.064L292.124 354.246C294.987 357.729 299.325 359.95 304.185 359.95C312.805 359.95 319.793 352.962 319.793 344.342C319.793 335.722 312.805 328.734 304.185 328.734C297.688 328.734 292.123 332.705 289.774 338.35L197.96 338.36V207.333H84.1643V130.904C137.767 105.713 197.208 92.4251 256.416 92.4251C315.613 92.4251 375.055 105.713 428.657 130.904V171.789C424.461 174.438 421.663 179.112 421.663 184.442C421.663 192.688 428.36 199.385 436.605 199.385C444.861 199.385 451.548 192.688 451.548 184.442C451.548 179.112 448.76 174.438 444.553 171.789Z" fill="white"/>
</g>
<mask id="mask14_11_541" style="mask-type:luminance" maskUnits="userSpaceOnUse" x="-1" y="0" width="1400" height="560">
<path d="M-0.00585938 0H1398.66V560H-0.00585938V0Z" fill="white"/>
</mask>
<g mask="url(#mask14_11_541)">
<path d="M76.2148 264.305C72.0708 264.305 68.6908 260.925 68.6908 256.781C68.6908 252.626 72.0708 249.256 76.2148 249.256C80.3695 249.256 83.7388 252.626 83.7388 256.781C83.7388 260.925 80.3695 264.305 76.2148 264.305ZM91.1575 256.781C91.1575 248.525 84.4708 241.838 76.2148 241.838C67.9695 241.838 61.2722 248.525 61.2722 256.781C61.2722 262.249 64.2188 267.04 68.6175 269.646C72.5055 334.704 109.004 394.273 165.828 427.072L256.404 479.37L346.982 427.072C376.304 410.148 400.838 385.741 417.911 356.513C421.496 350.373 424.711 344.043 427.588 337.573H410.043C408.216 341.272 406.274 344.918 404.186 348.492C388.503 375.346 365.972 397.76 339.034 413.305L256.404 461.016L173.776 413.305C121.722 383.262 88.2428 328.769 84.5135 269.201C88.5188 266.53 91.1575 261.964 91.1575 256.781Z" fill="white"/>
</g>
</g>
</svg>
