<svg width="1399" height="560" viewBox="0 0 1399 560" fill="none" xmlns="http://www.w3.org/2000/svg">
<mask id="mask0_11_460" style="mask-type:luminance" maskUnits="userSpaceOnUse" x="0" y="0" width="1399" height="560">
<path d="M1398.67 0H0V560H1398.67V0Z" fill="white"/>
</mask>
<g mask="url(#mask0_11_460)">
<mask id="mask1_11_460" style="mask-type:luminance" maskUnits="userSpaceOnUse" x="-1" y="0" width="1400" height="560">
<path d="M-0.00585938 0H1398.66V560H-0.00585938V0Z" fill="white"/>
</mask>
<g mask="url(#mask1_11_460)">
<path d="M451.643 94.904C391.152 65.5493 323.647 50.0347 256.405 50.0347C189.175 50.0347 121.668 65.5493 61.1787 94.904L41.7734 104.315V258.084C41.7734 337.015 84.2387 410.561 152.592 450.027L256.405 509.965L360.229 450.027C404.713 424.343 438.217 384.216 456.203 337.573H450.504C432.777 382.288 400.396 420.717 357.58 445.437L256.405 503.851L155.241 445.437C88.5201 406.916 47.0734 335.128 47.0734 258.084V107.632L63.4881 99.6627C123.269 70.6573 189.969 55.3333 256.405 55.3333C322.851 55.3333 389.552 70.6573 449.332 99.6627L465.748 107.632V199.64H471.047V104.315L451.643 94.904Z" fill="white"/>
</g>
<mask id="mask2_11_460" style="mask-type:luminance" maskUnits="userSpaceOnUse" x="-1" y="0" width="1400" height="560">
<path d="M-0.00585938 0H1398.66V560H-0.00585938V0Z" fill="white"/>
</mask>
<g mask="url(#mask2_11_460)">
<path d="M808.594 222.623C777.374 222.623 757.201 240.009 757.201 266.92C757.201 293.829 776.877 311.217 807.326 311.217C823.315 311.217 835.886 303.985 841.811 291.376L842.373 290.183H847.05L846.925 309.189H861.254V263.549H797.367V277.132H839.082L838.035 279.937C834.949 288.224 823.391 293.579 808.594 293.579C790.678 293.579 778.639 282.865 778.639 266.92C778.639 250.972 791.186 240.259 809.861 240.259C825.193 240.259 835.53 245.164 837.079 252.931H859.785C858.41 234.444 838.627 222.623 808.594 222.623ZM807.326 315.373C774.859 315.373 753.045 295.901 753.045 266.92C753.045 237.937 775.367 218.465 808.594 218.465C841.743 218.465 864.017 233.152 864.017 255.009V257.088H833.125V255.009C833.125 248.673 823.775 244.416 809.861 244.416C793.419 244.416 782.797 253.249 782.797 266.92C782.797 280.589 792.922 289.423 808.594 289.423C819.501 289.423 828.551 286.252 832.523 281.289H793.211V259.392H865.41V313.345H842.741L842.842 298.015C835.498 309.117 822.85 315.373 807.326 315.373Z" fill="white"/>
</g>
<mask id="mask3_11_460" style="mask-type:luminance" maskUnits="userSpaceOnUse" x="-1" y="0" width="1400" height="560">
<path d="M-0.00585938 0H1398.66V560H-0.00585938V0Z" fill="white"/>
</mask>
<g mask="url(#mask3_11_460)">
<path d="M881.877 224.65V265.145C881.877 297.438 895.732 311.217 928.2 311.217C960.67 311.217 974.524 297.438 974.524 265.145V224.65H953.086V268.948C953.086 283.736 943.782 292.566 928.2 292.566C912.618 292.566 903.314 283.736 903.314 268.948V224.65H881.877ZM928.2 315.373C893.289 315.373 877.721 299.882 877.721 265.145V220.493H907.47V268.948C907.47 281.497 914.833 288.409 928.2 288.409C941.568 288.409 948.929 281.497 948.929 268.948V220.493H978.681V265.145C978.681 299.882 963.113 315.373 928.2 315.373Z" fill="white"/>
</g>
<mask id="mask4_11_460" style="mask-type:luminance" maskUnits="userSpaceOnUse" x="-1" y="0" width="1400" height="560">
<path d="M-0.00585938 0H1398.66V560H-0.00585938V0Z" fill="white"/>
</mask>
<g mask="url(#mask4_11_460)">
<path d="M1042.79 272.443H1067.79L1055.34 249.917L1042.79 272.443ZM1074.83 276.601H1035.72L1055.35 241.349L1074.83 276.601ZM1093.06 309.189H1118.45L1067.85 224.65H1042.71L992.109 309.189H1017.51L1025.87 294.238H1084.69L1093.06 309.189ZM1125.79 313.346H1090.62L1082.25 298.394H1028.31L1019.95 313.346H984.776L1040.35 220.494H1070.21L1125.79 313.346Z" fill="white"/>
</g>
<mask id="mask5_11_460" style="mask-type:luminance" maskUnits="userSpaceOnUse" x="-1" y="0" width="1400" height="560">
<path d="M-0.00585938 0H1398.66V560H-0.00585938V0Z" fill="white"/>
</mask>
<g mask="url(#mask5_11_460)">
<path d="M1165.98 254.07H1205.61C1210.04 254.07 1210.88 252.53 1210.88 249.686C1210.88 246.83 1210.02 245.177 1205.61 245.177H1165.89L1165.98 254.07ZM1205.61 258.228H1161.86L1161.7 241.021H1205.61C1213.4 241.021 1215.04 245.733 1215.04 249.686C1215.04 255.354 1211.87 258.228 1205.61 258.228ZM1216.33 309.189H1242.94C1227.11 277.501 1217.36 271.826 1200.79 270.768L1198.84 270.642V266.39L1210.02 266.236C1226.6 266.236 1236.48 258.674 1236.48 246.012C1236.48 232.836 1226.35 224.65 1210.05 224.65H1140.53V309.189H1161.96L1161.84 273.458H1180.4C1195.57 273.458 1200.53 280.9 1216.33 309.189ZM1249.61 313.346H1213.89L1213.3 312.28C1195.39 280.181 1191.91 277.614 1180.4 277.614H1166.01L1166.13 313.346H1136.38V220.493H1210.05C1228.63 220.493 1240.63 230.51 1240.63 246.012C1240.63 259.349 1231.42 268.205 1216.17 270.038C1229.23 275.762 1237.57 288.632 1248.15 310.357L1249.61 313.346Z" fill="white"/>
</g>
<mask id="mask6_11_460" style="mask-type:luminance" maskUnits="userSpaceOnUse" x="-1" y="0" width="1400" height="560">
<path d="M-0.00585938 0H1398.66V560H-0.00585938V0Z" fill="white"/>
</mask>
<g mask="url(#mask6_11_460)">
<path d="M1288.08 287.395H1303.11C1319.72 287.395 1327.13 281.08 1327.13 266.919C1327.13 252.758 1319.72 246.443 1303.11 246.443H1288.08V287.395ZM1303.11 291.552H1283.92V242.287H1303.11C1322.07 242.287 1331.29 250.344 1331.29 266.919C1331.29 283.495 1322.07 291.552 1303.11 291.552ZM1262.48 309.19H1303.11C1335.1 309.19 1352.72 294.178 1352.72 266.919C1352.72 239.662 1335.1 224.65 1303.11 224.65H1262.48V309.19ZM1303.11 313.346H1258.33V220.494H1303.11C1337.28 220.494 1356.88 237.415 1356.88 266.919C1356.88 296.424 1337.28 313.346 1303.11 313.346Z" fill="white"/>
</g>
<mask id="mask7_11_460" style="mask-type:luminance" maskUnits="userSpaceOnUse" x="-1" y="0" width="1400" height="560">
<path d="M-0.00585938 0H1398.66V560H-0.00585938V0Z" fill="white"/>
</mask>
<g mask="url(#mask7_11_460)">
<path d="M464.559 245.379H429.081V223.586H525.759V245.379H490.153V312.281H464.559V296.019V245.379Z" fill="white"/>
</g>
<mask id="mask8_11_460" style="mask-type:luminance" maskUnits="userSpaceOnUse" x="-1" y="0" width="1400" height="560">
<path d="M-0.00585938 0H1398.66V560H-0.00585938V0Z" fill="white"/>
</mask>
<g mask="url(#mask8_11_460)">
<path d="M244.213 292.094V228.082L257.676 228.09C275.321 228.09 289.674 242.443 289.674 260.088C289.674 277.732 275.321 292.086 257.673 292.086L244.213 292.094ZM257.686 207.344L223.468 207.334V312.852L257.676 312.831C286.766 312.831 310.42 289.167 310.42 260.087C310.42 231.008 286.766 207.344 257.686 207.344Z" fill="white"/>
</g>
<mask id="mask9_11_460" style="mask-type:luminance" maskUnits="userSpaceOnUse" x="-1" y="0" width="1400" height="560">
<path d="M-0.00585938 0H1398.66V560H-0.00585938V0Z" fill="white"/>
</mask>
<g mask="url(#mask9_11_460)">
<path d="M590.973 274.522L575.007 245.632L558.915 274.522H590.973ZM561.195 222.572H588.693L641.783 311.267H611.499L603.137 296.316H546.751L538.387 311.267H508.105L561.195 222.572Z" fill="white"/>
</g>
<mask id="mask10_11_460" style="mask-type:luminance" maskUnits="userSpaceOnUse" x="-1" y="0" width="1400" height="560">
<path d="M-0.00585938 0H1398.66V560H-0.00585938V0Z" fill="white"/>
</mask>
<g mask="url(#mask10_11_460)">
<path d="M640.002 281.618H667.245C667.245 287.572 674.213 291.501 690.431 291.501C706.905 291.501 715.141 289.601 715.141 285.038C715.141 267.046 642.282 293.782 642.282 249.56C642.282 231.315 662.683 220.544 691.191 220.544C720.209 220.544 738.327 233.848 738.327 252.222H712.479C712.479 246.266 705.51 242.338 690.813 242.338C676.874 242.338 668.131 244.238 668.131 248.799C668.131 265.399 740.862 241.704 740.862 284.278C740.862 303.791 722.995 313.295 690.053 313.295C658.881 313.295 640.002 299.991 640.002 281.618Z" fill="white"/>
</g>
<mask id="mask11_11_460" style="mask-type:luminance" maskUnits="userSpaceOnUse" x="-1" y="0" width="1400" height="560">
<path d="M-0.00585938 0H1398.66V560H-0.00585938V0Z" fill="white"/>
</mask>
<g mask="url(#mask11_11_460)">
<path d="M190.012 181.306C185.868 181.306 182.488 177.926 182.488 173.782C182.488 169.627 185.868 166.258 190.012 166.258C194.166 166.258 197.536 169.627 197.536 173.782C197.536 177.926 194.166 181.306 190.012 181.306ZM335.862 255.154L348.358 234.278C337.124 194.811 300.754 165.834 257.741 165.834H202.665C200.026 161.626 195.342 158.839 190.012 158.839C181.766 158.839 175.069 165.526 175.069 173.782C175.069 182.026 181.766 188.724 190.012 188.724C195.342 188.724 200.016 185.926 202.665 181.73H257.741C299.205 181.73 333.232 215.779 335.862 255.154Z" fill="white"/>
</g>
<mask id="mask12_11_460" style="mask-type:luminance" maskUnits="userSpaceOnUse" x="-1" y="0" width="1400" height="560">
<path d="M-0.00585938 0H1398.66V560H-0.00585938V0Z" fill="white"/>
</mask>
<g mask="url(#mask12_11_460)">
<path d="M398.512 274.522L382.546 245.632L366.454 274.522H398.512ZM368.734 222.572H396.23L449.322 311.267H419.038L410.676 296.316H354.29L345.926 311.267H315.644L368.734 222.572Z" fill="white"/>
</g>
<mask id="mask13_11_460" style="mask-type:luminance" maskUnits="userSpaceOnUse" x="-1" y="0" width="1400" height="560">
<path d="M-0.00585938 0H1398.66V560H-0.00585938V0Z" fill="white"/>
</mask>
<g mask="url(#mask13_11_460)">
<path d="M436.605 191.966C432.449 191.966 429.081 188.598 429.081 184.442C429.081 180.288 432.449 176.918 436.605 176.918C440.761 176.918 444.129 180.288 444.129 184.442C444.129 188.598 440.761 191.966 436.605 191.966ZM304.185 335.937C308.827 335.937 312.59 339.701 312.59 344.342C312.59 348.984 308.827 352.746 304.185 352.746C299.544 352.746 295.782 348.984 295.782 344.342C295.782 339.701 299.544 335.937 304.185 335.937ZM444.553 171.789V120.91L440.081 118.738C383.173 91.1211 319.661 76.5278 256.416 76.5278C193.16 76.5278 129.65 91.1211 72.7509 118.738L68.2682 120.91V223.229H182.064V354.257H218.064L292.124 354.246C294.987 357.729 299.325 359.95 304.185 359.95C312.805 359.95 319.793 352.962 319.793 344.342C319.793 335.722 312.805 328.734 304.185 328.734C297.688 328.734 292.123 332.705 289.774 338.35L197.96 338.36V207.333H84.1642V130.904C137.767 105.713 197.208 92.4251 256.416 92.4251C315.613 92.4251 375.055 105.713 428.657 130.904V171.789C424.461 174.438 421.663 179.112 421.663 184.442C421.663 192.688 428.36 199.385 436.605 199.385C444.861 199.385 451.548 192.688 451.548 184.442C451.548 179.112 448.76 174.438 444.553 171.789Z" fill="white"/>
</g>
<mask id="mask14_11_460" style="mask-type:luminance" maskUnits="userSpaceOnUse" x="-1" y="0" width="1400" height="560">
<path d="M-0.00585938 0H1398.66V560H-0.00585938V0Z" fill="white"/>
</mask>
<g mask="url(#mask14_11_460)">
<path d="M76.2149 264.305C72.0709 264.305 68.6909 260.925 68.6909 256.781C68.6909 252.626 72.0709 249.256 76.2149 249.256C80.3696 249.256 83.7389 252.626 83.7389 256.781C83.7389 260.925 80.3696 264.305 76.2149 264.305ZM91.1576 256.781C91.1576 248.525 84.4709 241.838 76.2149 241.838C67.9696 241.838 61.2723 248.525 61.2723 256.781C61.2723 262.249 64.2189 267.04 68.6176 269.646C72.5056 334.704 109.004 394.273 165.828 427.072L256.404 479.37L346.982 427.072C376.304 410.148 400.838 385.741 417.911 356.513C421.496 350.373 424.711 344.043 427.588 337.573H410.043C408.216 341.272 406.274 344.918 404.186 348.492C388.503 375.346 365.972 397.76 339.034 413.305L256.404 461.016L173.776 413.305C121.722 383.262 88.2429 328.769 84.5136 269.201C88.5189 266.53 91.1576 261.964 91.1576 256.781Z" fill="white"/>
</g>
<path d="M1039.23 355.446V411.669H1027.18V355.446H1039.23ZM1060.44 408.215L1062.36 411.669H1038.99V408.215H1060.44ZM1057.46 382.272V385.646H1038.99V382.272H1057.46ZM1061.4 355.446V358.899H1038.99V355.446H1061.4ZM1066.3 395.203L1062.6 411.669H1046.86L1049.75 408.215C1052.43 408.215 1054.79 407.706 1056.82 406.689C1058.86 405.618 1060.6 404.119 1062.04 402.191C1063.49 400.21 1064.64 397.881 1065.5 395.203H1066.3ZM1057.46 385.485V393.195H1056.66V392.553C1056.66 390.572 1056.02 388.939 1054.73 387.653C1053.45 386.368 1051.82 385.699 1049.83 385.646V385.485H1057.46ZM1057.46 374.722V382.433H1049.83V382.272C1051.82 382.219 1053.45 381.549 1054.73 380.264C1056.02 378.926 1056.66 377.266 1056.66 375.284V374.722H1057.46ZM1061.4 358.658V368.056H1060.6V367.092C1060.6 364.629 1059.85 362.648 1058.35 361.148C1056.9 359.649 1054.92 358.873 1052.4 358.819V358.658H1061.4ZM1061.4 354V356.329L1051.6 355.446C1052.78 355.446 1054.01 355.365 1055.3 355.205C1056.63 355.044 1057.87 354.857 1058.99 354.643C1060.12 354.428 1060.92 354.214 1061.4 354ZM1027.43 405.805V411.669H1021V410.866C1021 410.866 1021.16 410.866 1021.48 410.866C1021.86 410.866 1022.04 410.866 1022.04 410.866C1023.44 410.866 1024.61 410.384 1025.58 409.42C1026.6 408.402 1027.13 407.198 1027.18 405.805H1027.43ZM1027.43 361.309H1027.18C1027.13 359.917 1026.6 358.739 1025.58 357.775C1024.61 356.758 1023.44 356.249 1022.04 356.249C1022.04 356.249 1021.86 356.249 1021.48 356.249C1021.16 356.249 1021 356.249 1021 356.249V355.446H1027.43V361.309Z" fill="white"/>
<path d="M1089.02 355.446V390.786C1089.02 394.588 1089.63 397.881 1090.86 400.665C1092.15 403.449 1093.94 405.591 1096.25 407.091C1098.6 408.59 1101.39 409.339 1104.6 409.339C1107.86 409.339 1110.68 408.643 1113.03 407.251C1115.44 405.805 1117.29 403.771 1118.57 401.147C1119.86 398.523 1120.5 395.418 1120.5 391.83V355.446H1126.28V391.348C1126.28 395.739 1125.35 399.541 1123.47 402.753C1121.65 405.966 1119 408.456 1115.52 410.223C1112.09 411.936 1107.95 412.793 1103.07 412.793C1097.4 412.793 1092.6 411.936 1088.7 410.223C1084.79 408.456 1081.84 405.993 1079.86 402.834C1077.93 399.621 1076.97 395.819 1076.97 391.428V355.446H1089.02ZM1077.21 355.446V360.265H1076.97C1076.97 359.087 1076.54 358.123 1075.68 357.373C1074.88 356.624 1073.89 356.249 1072.71 356.249C1072.71 356.249 1072.5 356.249 1072.07 356.249C1071.64 356.249 1071.43 356.249 1071.43 356.249V355.446H1077.21ZM1094.56 355.446V356.249C1094.56 356.249 1094.34 356.249 1093.92 356.249C1093.49 356.249 1093.27 356.249 1093.27 356.249C1092.1 356.249 1091.08 356.624 1090.22 357.373C1089.42 358.123 1089.02 359.087 1089.02 360.265H1088.86V355.446H1094.56ZM1120.74 355.446V360.265H1120.5C1120.5 359.087 1120.07 358.123 1119.22 357.373C1118.41 356.624 1117.42 356.249 1116.24 356.249C1116.24 356.249 1116.03 356.249 1115.6 356.249C1115.17 356.249 1114.96 356.249 1114.96 356.249V355.446H1120.74ZM1131.83 355.446V356.249C1131.83 356.249 1131.61 356.249 1131.18 356.249C1130.76 356.249 1130.54 356.249 1130.54 356.249C1129.36 356.249 1128.35 356.624 1127.49 357.373C1126.69 358.123 1126.28 359.087 1126.28 360.265H1126.12V355.446H1131.83Z" fill="white"/>
<path d="M1154.04 355.446H1164.4C1166.81 355.446 1169.17 355.713 1171.47 356.249C1173.78 356.784 1175.81 357.641 1177.58 358.819C1179.4 359.997 1180.84 361.55 1181.91 363.478C1182.99 365.405 1183.52 367.788 1183.52 370.626C1183.52 372.875 1183.04 375.124 1182.08 377.373C1181.16 379.568 1179.75 381.469 1177.82 383.075C1175.89 384.628 1173.4 385.565 1170.35 385.886C1172.06 386.422 1173.61 387.386 1175.01 388.778C1176.45 390.17 1177.63 391.562 1178.54 392.954C1178.59 393.062 1178.89 393.543 1179.42 394.4C1180.01 395.257 1180.71 396.328 1181.51 397.613C1182.37 398.845 1183.25 400.103 1184.16 401.388C1185.07 402.673 1185.9 403.797 1186.65 404.761C1187.83 406.207 1188.9 407.385 1189.87 408.295C1190.83 409.152 1191.85 409.795 1192.92 410.223C1193.99 410.598 1195.22 410.812 1196.61 410.866V411.669H1188.74C1185.85 411.669 1183.23 411.428 1180.87 410.946C1178.51 410.41 1176.43 409.527 1174.61 408.295C1172.78 407.064 1171.21 405.404 1169.87 403.316C1169.44 402.673 1168.96 401.87 1168.42 400.906C1167.94 399.889 1167.43 398.818 1166.89 397.693C1166.36 396.569 1165.82 395.498 1165.29 394.481C1164.81 393.41 1164.38 392.446 1164 391.589C1163.63 390.732 1163.36 390.063 1163.2 389.581C1162.5 387.868 1161.67 386.583 1160.71 385.726C1159.8 384.869 1158.81 384.36 1157.74 384.2V383.397C1157.9 383.397 1158.22 383.397 1158.7 383.397C1159.18 383.397 1159.69 383.397 1160.23 383.397C1161.67 383.397 1163.07 383.102 1164.4 382.513C1165.8 381.924 1167.03 380.96 1168.1 379.622C1169.17 378.283 1169.92 376.436 1170.35 374.08C1170.46 373.598 1170.54 373.035 1170.59 372.393C1170.7 371.75 1170.72 371.028 1170.67 370.224C1170.51 366.369 1169.55 363.558 1167.78 361.791C1166.01 359.97 1163.82 359.033 1161.19 358.98C1160.44 358.926 1159.61 358.926 1158.7 358.98C1157.85 358.98 1157.04 358.98 1156.29 358.98C1155.6 358.98 1155.11 358.98 1154.85 358.98C1154.85 358.926 1154.77 358.632 1154.61 358.096C1154.5 357.507 1154.37 356.918 1154.2 356.329C1154.1 355.74 1154.04 355.446 1154.04 355.446ZM1155.09 355.446V411.669H1143.04V355.446H1155.09ZM1143.28 405.805V411.669H1136.86V410.866C1136.91 410.866 1137.07 410.866 1137.34 410.866C1137.66 410.866 1137.85 410.866 1137.9 410.866C1139.29 410.866 1140.47 410.384 1141.43 409.42C1142.45 408.402 1142.99 407.198 1143.04 405.805H1143.28ZM1143.28 361.309H1143.04C1142.99 359.917 1142.45 358.739 1141.43 357.775C1140.47 356.758 1139.29 356.249 1137.9 356.249C1137.85 356.249 1137.66 356.249 1137.34 356.249C1137.07 356.249 1136.91 356.249 1136.86 356.249V355.446H1143.28V361.309ZM1154.85 405.805H1155.09C1155.09 407.198 1155.6 408.402 1156.61 409.42C1157.63 410.384 1158.84 410.866 1160.23 410.866C1160.34 410.866 1160.52 410.866 1160.79 410.866C1161.06 410.866 1161.19 410.866 1161.19 410.866V411.669H1154.85V405.805Z" fill="white"/>
<path d="M1226.39 354.321C1232.82 354.321 1238.39 355.526 1243.1 357.936C1247.86 360.292 1251.53 363.638 1254.1 367.975C1256.73 372.313 1258.04 377.507 1258.04 383.557C1258.04 389.554 1256.73 394.748 1254.1 399.139C1251.53 403.476 1247.86 406.85 1243.1 409.259C1238.39 411.615 1232.82 412.793 1226.39 412.793C1219.97 412.793 1214.37 411.615 1209.61 409.259C1204.89 406.85 1201.25 403.476 1198.68 399.139C1196.11 394.802 1194.83 389.608 1194.83 383.557C1194.83 377.56 1196.11 372.393 1198.68 368.056C1201.25 363.665 1204.89 360.292 1209.61 357.936C1214.37 355.526 1219.97 354.321 1226.39 354.321ZM1226.39 409.42C1230.19 409.42 1233.46 408.376 1236.19 406.287C1238.92 404.146 1241.04 401.147 1242.54 397.292C1244.04 393.436 1244.79 388.858 1244.79 383.557C1244.79 378.256 1244.04 373.678 1242.54 369.823C1241.04 365.967 1238.92 362.996 1236.19 360.907C1233.46 358.766 1230.19 357.695 1226.39 357.695C1222.64 357.695 1219.38 358.766 1216.59 360.907C1213.86 362.996 1211.75 365.967 1210.25 369.823C1208.75 373.678 1208 378.256 1208 383.557C1208 388.858 1208.75 393.436 1210.25 397.292C1211.75 401.147 1213.86 404.146 1216.59 406.287C1219.38 408.376 1222.64 409.42 1226.39 409.42Z" fill="white"/>
<path d="M1280.72 355.446H1290.36C1294.96 355.446 1298.68 356.115 1301.52 357.454C1304.41 358.792 1306.55 360.64 1307.95 362.996C1309.39 365.298 1310.17 367.922 1310.28 370.867C1310.38 373.598 1309.93 376.088 1308.91 378.337C1307.89 380.585 1306.5 382.46 1304.73 383.959C1302.97 385.458 1300.93 386.556 1298.63 387.252C1296.38 387.894 1294.02 388.055 1291.56 387.734C1289.15 387.359 1286.8 386.422 1284.49 384.923V384.119C1284.49 384.119 1284.81 384.119 1285.46 384.119C1286.15 384.119 1287.01 384.012 1288.03 383.798C1289.1 383.584 1290.2 383.182 1291.32 382.593C1292.5 382.004 1293.6 381.094 1294.61 379.863C1295.63 378.631 1296.41 376.998 1296.94 374.963C1297.16 374.267 1297.29 373.491 1297.34 372.634C1297.45 371.724 1297.48 370.894 1297.42 370.144C1297.37 366.717 1296.43 363.986 1294.61 361.952C1292.85 359.863 1290.33 358.819 1287.06 358.819H1281.52C1281.52 358.819 1281.44 358.551 1281.28 358.016C1281.17 357.427 1281.04 356.865 1280.88 356.329C1280.77 355.74 1280.72 355.446 1280.72 355.446ZM1281.76 355.446V411.669H1269.71V355.446H1281.76ZM1269.96 405.805V411.669H1263.53V410.866C1263.58 410.866 1263.74 410.866 1264.01 410.866C1264.33 410.866 1264.52 410.866 1264.57 410.866C1265.97 410.866 1267.14 410.384 1268.11 409.42C1269.13 408.402 1269.66 407.198 1269.71 405.805H1269.96ZM1269.96 361.309H1269.71C1269.71 359.917 1269.21 358.739 1268.19 357.775C1267.17 356.758 1265.97 356.249 1264.57 356.249C1264.52 356.249 1264.36 356.249 1264.09 356.249C1263.82 356.249 1263.66 356.249 1263.61 356.249L1263.53 355.446H1269.96V361.309ZM1281.52 405.805H1281.76C1281.82 407.198 1282.32 408.402 1283.29 409.42C1284.31 410.384 1285.51 410.866 1286.9 410.866C1286.96 410.866 1287.12 410.866 1287.38 410.866C1287.71 410.866 1287.89 410.866 1287.95 410.866V411.669H1281.52V405.805Z" fill="white"/>
<path d="M1334.07 355.446V411.669H1322.03V355.446H1334.07ZM1355.28 408.215L1357.21 411.669H1333.83V408.215H1355.28ZM1352.31 382.272V385.646H1333.83V382.272H1352.31ZM1356.24 355.446V358.899H1333.83V355.446H1356.24ZM1361.14 395.203L1357.45 411.669H1341.7L1344.6 408.215C1347.27 408.215 1349.63 407.706 1351.66 406.689C1353.7 405.618 1355.44 404.119 1356.88 402.191C1358.33 400.21 1359.48 397.881 1360.34 395.203H1361.14ZM1352.31 385.485V393.195H1351.5V392.553C1351.5 390.572 1350.86 388.939 1349.57 387.653C1348.29 386.368 1346.66 385.699 1344.68 385.646V385.485H1352.31ZM1352.31 374.722V382.433H1344.68V382.272C1346.66 382.219 1348.29 381.549 1349.57 380.264C1350.86 378.926 1351.5 377.266 1351.5 375.284V374.722H1352.31ZM1356.24 358.658V368.056H1355.44V367.092C1355.44 364.629 1354.69 362.648 1353.19 361.148C1351.74 359.649 1349.76 358.873 1347.25 358.819V358.658H1356.24ZM1356.24 354V356.329L1346.44 355.446C1347.62 355.446 1348.85 355.365 1350.14 355.205C1351.48 355.044 1352.71 354.857 1353.83 354.643C1354.96 354.428 1355.76 354.214 1356.24 354ZM1322.27 405.805V411.669H1315.84V410.866C1315.84 410.866 1316 410.866 1316.32 410.866C1316.7 410.866 1316.89 410.866 1316.89 410.866C1318.28 410.866 1319.46 410.384 1320.42 409.42C1321.44 408.402 1321.97 407.198 1322.03 405.805H1322.27ZM1322.27 361.309H1322.03C1321.97 359.917 1321.44 358.739 1320.42 357.775C1319.46 356.758 1318.28 356.249 1316.89 356.249C1316.89 356.249 1316.7 356.249 1316.32 356.249C1316 356.249 1315.84 356.249 1315.84 356.249V355.446H1322.27V361.309Z" fill="white"/>
</g>
</svg>
