<svg width="1399" height="560" viewBox="0 0 1399 560" fill="none" xmlns="http://www.w3.org/2000/svg">
<g clip-path="url(#clip0_11_321)">
<mask id="mask0_11_321" style="mask-type:luminance" maskUnits="userSpaceOnUse" x="-1" y="0" width="1400" height="560">
<path d="M-0.00585938 -1.66893e-05H1398.66V560H-0.00585938V-1.66893e-05Z" fill="white"/>
</mask>
<g mask="url(#mask0_11_321)">
<path d="M451.643 94.904C391.152 65.5493 323.647 50.0347 256.405 50.0347C189.175 50.0347 121.668 65.5493 61.1788 94.904L41.7734 104.315V258.084C41.7734 337.015 84.2388 410.561 152.592 450.027L256.405 509.965L360.229 450.027C404.713 424.343 438.217 384.216 456.203 337.573H450.504C432.777 382.288 400.396 420.717 357.58 445.437L256.405 503.851L155.241 445.437C88.5201 406.916 47.0734 335.128 47.0734 258.084V107.632L63.4881 99.6627C123.269 70.6573 189.969 55.3333 256.405 55.3333C322.851 55.3333 389.552 70.6573 449.332 99.6627L465.748 107.632V199.64H471.047V104.315L451.643 94.904Z" fill="white"/>
</g>
<mask id="mask1_11_321" style="mask-type:luminance" maskUnits="userSpaceOnUse" x="-1" y="0" width="1400" height="560">
<path d="M-0.00585938 -1.66893e-05H1398.66V560H-0.00585938V-1.66893e-05Z" fill="white"/>
</mask>
<g mask="url(#mask1_11_321)">
<path d="M808.594 222.623C777.374 222.623 757.2 240.009 757.2 266.92C757.2 293.829 776.876 311.217 807.326 311.217C823.315 311.217 835.886 303.985 841.811 291.376L842.372 290.183H847.05L846.924 309.189H861.254V263.549H797.367V277.132H839.082L838.035 279.937C834.948 288.224 823.391 293.579 808.594 293.579C790.678 293.579 778.639 282.865 778.639 266.92C778.639 250.972 791.186 240.259 809.86 240.259C825.192 240.259 835.53 245.164 837.079 252.931H859.784C858.41 234.444 838.627 222.623 808.594 222.623ZM807.326 315.373C774.859 315.373 753.044 295.901 753.044 266.92C753.044 237.937 775.367 218.465 808.594 218.465C841.743 218.465 864.016 233.152 864.016 255.009V257.088H833.124V255.009C833.124 248.673 823.775 244.416 809.86 244.416C793.419 244.416 782.796 253.249 782.796 266.92C782.796 280.589 792.922 289.423 808.594 289.423C819.5 289.423 828.551 286.252 832.523 281.289H793.211V259.392H865.41V313.345H842.74L842.842 298.015C835.498 309.117 822.85 315.373 807.326 315.373Z" fill="white"/>
</g>
<mask id="mask2_11_321" style="mask-type:luminance" maskUnits="userSpaceOnUse" x="-1" y="0" width="1400" height="560">
<path d="M-0.00585938 -1.66893e-05H1398.66V560H-0.00585938V-1.66893e-05Z" fill="white"/>
</mask>
<g mask="url(#mask2_11_321)">
<path d="M881.877 224.65V265.145C881.877 297.438 895.732 311.217 928.2 311.217C960.671 311.217 974.524 297.438 974.524 265.145V224.65H953.087V268.948C953.087 283.736 943.783 292.566 928.2 292.566C912.619 292.566 903.315 283.736 903.315 268.948V224.65H881.877ZM928.2 315.373C893.289 315.373 877.721 299.882 877.721 265.145V220.493H907.471V268.948C907.471 281.497 914.833 288.409 928.2 288.409C941.568 288.409 948.929 281.497 948.929 268.948V220.493H978.681V265.145C978.681 299.882 963.113 315.373 928.2 315.373Z" fill="white"/>
</g>
<mask id="mask3_11_321" style="mask-type:luminance" maskUnits="userSpaceOnUse" x="-1" y="0" width="1400" height="560">
<path d="M-0.00585938 -1.66893e-05H1398.66V560H-0.00585938V-1.66893e-05Z" fill="white"/>
</mask>
<g mask="url(#mask3_11_321)">
<path d="M1042.79 272.443H1067.79L1055.34 249.917L1042.79 272.443ZM1074.83 276.601H1035.72L1055.35 241.349L1074.83 276.601ZM1093.06 309.189H1118.45L1067.85 224.65H1042.71L992.109 309.189H1017.51L1025.87 294.238H1084.69L1093.06 309.189ZM1125.79 313.346H1090.62L1082.25 298.394H1028.31L1019.95 313.346H984.776L1040.35 220.494H1070.21L1125.79 313.346Z" fill="white"/>
</g>
<mask id="mask4_11_321" style="mask-type:luminance" maskUnits="userSpaceOnUse" x="-1" y="0" width="1400" height="560">
<path d="M-0.00585938 -1.66893e-05H1398.66V560H-0.00585938V-1.66893e-05Z" fill="white"/>
</mask>
<g mask="url(#mask4_11_321)">
<path d="M1165.98 254.07H1205.61C1210.04 254.07 1210.88 252.53 1210.88 249.686C1210.88 246.83 1210.02 245.177 1205.61 245.177H1165.89L1165.98 254.07ZM1205.61 258.228H1161.86L1161.7 241.021H1205.61C1213.4 241.021 1215.04 245.733 1215.04 249.686C1215.04 255.354 1211.87 258.228 1205.61 258.228ZM1216.33 309.189H1242.94C1227.11 277.501 1217.36 271.826 1200.79 270.768L1198.84 270.642V266.39L1210.02 266.236C1226.6 266.236 1236.48 258.674 1236.48 246.012C1236.48 232.836 1226.35 224.65 1210.05 224.65H1140.53V309.189H1161.96L1161.84 273.458H1180.4C1195.57 273.458 1200.53 280.9 1216.33 309.189ZM1249.61 313.346H1213.89L1213.3 312.28C1195.39 280.181 1191.91 277.614 1180.4 277.614H1166.01L1166.13 313.346H1136.38V220.493H1210.05C1228.63 220.493 1240.63 230.51 1240.63 246.012C1240.63 259.349 1231.42 268.205 1216.17 270.038C1229.23 275.762 1237.57 288.632 1248.15 310.357L1249.61 313.346Z" fill="white"/>
</g>
<mask id="mask5_11_321" style="mask-type:luminance" maskUnits="userSpaceOnUse" x="-1" y="0" width="1400" height="560">
<path d="M-0.00585938 -1.66893e-05H1398.66V560H-0.00585938V-1.66893e-05Z" fill="white"/>
</mask>
<g mask="url(#mask5_11_321)">
<path d="M1288.08 287.395H1303.11C1319.72 287.395 1327.13 281.08 1327.13 266.919C1327.13 252.758 1319.72 246.443 1303.11 246.443H1288.08V287.395ZM1303.11 291.552H1283.92V242.287H1303.11C1322.07 242.287 1331.29 250.344 1331.29 266.919C1331.29 283.495 1322.07 291.552 1303.11 291.552ZM1262.48 309.19H1303.11C1335.1 309.19 1352.72 294.178 1352.72 266.919C1352.72 239.662 1335.1 224.65 1303.11 224.65H1262.48V309.19ZM1303.11 313.346H1258.33V220.494H1303.11C1337.28 220.494 1356.88 237.415 1356.88 266.919C1356.88 296.424 1337.28 313.346 1303.11 313.346Z" fill="white"/>
</g>
<mask id="mask6_11_321" style="mask-type:luminance" maskUnits="userSpaceOnUse" x="-1" y="0" width="1400" height="560">
<path d="M-0.00585938 -1.66893e-05H1398.66V560H-0.00585938V-1.66893e-05Z" fill="white"/>
</mask>
<g mask="url(#mask6_11_321)">
<path d="M464.559 245.379H429.082V223.586H525.759V245.379H490.154V312.281H464.559V296.019V245.379Z" fill="white"/>
</g>
<mask id="mask7_11_321" style="mask-type:luminance" maskUnits="userSpaceOnUse" x="-1" y="0" width="1400" height="560">
<path d="M-0.00585938 -1.66893e-05H1398.66V560H-0.00585938V-1.66893e-05Z" fill="white"/>
</mask>
<g mask="url(#mask7_11_321)">
<path d="M244.213 292.094V228.082L257.676 228.09C275.321 228.09 289.674 242.443 289.674 260.088C289.674 277.732 275.321 292.086 257.673 292.086L244.213 292.094ZM257.686 207.344L223.468 207.334V312.852L257.676 312.831C286.766 312.831 310.42 289.167 310.42 260.087C310.42 231.008 286.766 207.344 257.686 207.344Z" fill="white"/>
</g>
<mask id="mask8_11_321" style="mask-type:luminance" maskUnits="userSpaceOnUse" x="-1" y="0" width="1400" height="560">
<path d="M-0.00585938 -1.66893e-05H1398.66V560H-0.00585938V-1.66893e-05Z" fill="white"/>
</mask>
<g mask="url(#mask8_11_321)">
<path d="M590.973 274.522L575.008 245.632L558.916 274.522H590.973ZM561.196 222.572H588.693L641.784 311.267H611.5L603.137 296.316H546.752L538.388 311.267H508.105L561.196 222.572Z" fill="white"/>
</g>
<mask id="mask9_11_321" style="mask-type:luminance" maskUnits="userSpaceOnUse" x="-1" y="0" width="1400" height="560">
<path d="M-0.00585938 -1.66893e-05H1398.66V560H-0.00585938V-1.66893e-05Z" fill="white"/>
</mask>
<g mask="url(#mask9_11_321)">
<path d="M640.002 281.618H667.245C667.245 287.572 674.213 291.501 690.431 291.501C706.905 291.501 715.141 289.601 715.141 285.038C715.141 267.046 642.282 293.782 642.282 249.56C642.282 231.315 662.683 220.544 691.191 220.544C720.209 220.544 738.327 233.848 738.327 252.222H712.479C712.479 246.266 705.51 242.338 690.813 242.338C676.874 242.338 668.131 244.238 668.131 248.799C668.131 265.399 740.862 241.704 740.862 284.278C740.862 303.791 722.995 313.295 690.053 313.295C658.881 313.295 640.002 299.991 640.002 281.618Z" fill="white"/>
</g>
<mask id="mask10_11_321" style="mask-type:luminance" maskUnits="userSpaceOnUse" x="-1" y="0" width="1400" height="560">
<path d="M-0.00585938 -1.66893e-05H1398.66V560H-0.00585938V-1.66893e-05Z" fill="white"/>
</mask>
<g mask="url(#mask10_11_321)">
<path d="M190.012 181.306C185.868 181.306 182.488 177.926 182.488 173.782C182.488 169.627 185.868 166.258 190.012 166.258C194.167 166.258 197.536 169.627 197.536 173.782C197.536 177.926 194.167 181.306 190.012 181.306ZM335.863 255.154L348.359 234.278C337.124 194.811 300.755 165.834 257.741 165.834H202.665C200.027 161.626 195.343 158.839 190.012 158.839C181.767 158.839 175.069 165.526 175.069 173.782C175.069 182.026 181.767 188.724 190.012 188.724C195.343 188.724 200.016 185.926 202.665 181.73H257.741C299.205 181.73 333.232 215.779 335.863 255.154Z" fill="white"/>
</g>
<mask id="mask11_11_321" style="mask-type:luminance" maskUnits="userSpaceOnUse" x="-1" y="0" width="1400" height="560">
<path d="M-0.00585938 -1.66893e-05H1398.66V560H-0.00585938V-1.66893e-05Z" fill="white"/>
</mask>
<g mask="url(#mask11_11_321)">
<path d="M398.512 274.522L382.547 245.632L366.455 274.522H398.512ZM368.735 222.572H396.231L449.323 311.267H419.039L410.676 296.316H354.291L345.927 311.267H315.644L368.735 222.572Z" fill="white"/>
</g>
<mask id="mask12_11_321" style="mask-type:luminance" maskUnits="userSpaceOnUse" x="-1" y="0" width="1400" height="560">
<path d="M-0.00585938 -1.66893e-05H1398.66V560H-0.00585938V-1.66893e-05Z" fill="white"/>
</mask>
<g mask="url(#mask12_11_321)">
<path d="M436.605 191.966C432.449 191.966 429.081 188.598 429.081 184.442C429.081 180.288 432.449 176.918 436.605 176.918C440.761 176.918 444.129 180.288 444.129 184.442C444.129 188.598 440.761 191.966 436.605 191.966ZM304.185 335.937C308.827 335.937 312.589 339.701 312.589 344.342C312.589 348.984 308.827 352.746 304.185 352.746C299.544 352.746 295.781 348.984 295.781 344.342C295.781 339.701 299.544 335.937 304.185 335.937ZM444.553 171.789V120.91L440.081 118.738C383.173 91.1211 319.661 76.5278 256.416 76.5278C193.16 76.5278 129.649 91.1211 72.7507 118.738L68.2681 120.91V223.229H182.064V354.257H218.064L292.124 354.246C294.987 357.729 299.325 359.95 304.185 359.95C312.805 359.95 319.793 352.962 319.793 344.342C319.793 335.722 312.805 328.734 304.185 328.734C297.688 328.734 292.123 332.705 289.773 338.35L197.96 338.36V207.333H84.1641V130.904C137.767 105.713 197.208 92.4251 256.416 92.4251C315.613 92.4251 375.055 105.713 428.657 130.904V171.789C424.461 174.438 421.663 179.112 421.663 184.442C421.663 192.688 428.36 199.385 436.605 199.385C444.861 199.385 451.548 192.688 451.548 184.442C451.548 179.112 448.76 174.438 444.553 171.789Z" fill="white"/>
</g>
<mask id="mask13_11_321" style="mask-type:luminance" maskUnits="userSpaceOnUse" x="-1" y="0" width="1400" height="560">
<path d="M-0.00585938 -1.66893e-05H1398.66V560H-0.00585938V-1.66893e-05Z" fill="white"/>
</mask>
<g mask="url(#mask13_11_321)">
<path d="M76.2149 264.305C72.0709 264.305 68.6909 260.925 68.6909 256.781C68.6909 252.627 72.0709 249.256 76.2149 249.256C80.3695 249.256 83.7389 252.627 83.7389 256.781C83.7389 260.925 80.3695 264.305 76.2149 264.305ZM91.1575 256.781C91.1575 248.525 84.4709 241.839 76.2149 241.839C67.9695 241.839 61.2722 248.525 61.2722 256.781C61.2722 262.249 64.2189 267.04 68.6175 269.647C72.5055 334.704 109.004 394.273 165.828 427.072L256.404 479.371L346.982 427.072C376.304 410.148 400.838 385.741 417.911 356.513C421.496 350.373 424.711 344.043 427.588 337.573H410.043C408.216 341.272 406.274 344.919 404.186 348.492C388.503 375.347 365.972 397.76 339.034 413.305L256.404 461.016L173.776 413.305C121.722 383.263 88.2429 328.769 84.5135 269.201C88.5189 266.531 91.1575 261.964 91.1575 256.781Z" fill="white"/>
</g>
<path d="M1165.06 348.653L1165.71 357.407L1141.85 398.771C1141.85 398.771 1141.58 399.253 1141.05 400.217C1140.51 401.127 1139.98 402.252 1139.44 403.59C1138.96 404.929 1138.72 406.268 1138.72 407.606H1137.92L1134.78 400.619L1165.06 348.653ZM1110.61 400.137V406H1101.69V405.197C1101.75 405.197 1101.99 405.197 1102.42 405.197C1102.79 405.197 1102.98 405.197 1102.98 405.197C1104.42 405.197 1105.71 404.768 1106.83 403.912C1107.96 403.001 1108.63 401.743 1108.84 400.137H1110.61ZM1114.14 401.422C1114.14 401.475 1114.14 401.529 1114.14 401.582C1114.14 401.636 1114.14 401.716 1114.14 401.823C1114.14 402.68 1114.44 403.483 1115.03 404.233C1115.67 404.929 1116.42 405.277 1117.28 405.277H1118.48V406H1113.58V401.422H1114.14ZM1115.51 348.653H1116.23L1119.04 356.684L1113.66 406H1108.04L1115.51 348.653ZM1116.23 348.653L1142.5 391.784L1137.92 407.606L1114.14 367.688L1116.23 348.653ZM1165.79 348.653L1173.42 406H1160.49L1156.47 369.053L1165.06 348.653H1165.79ZM1170.93 400.137H1172.61C1172.88 401.743 1173.58 403.001 1174.7 403.912C1175.83 404.768 1177.09 405.197 1178.48 405.197C1178.48 405.197 1178.69 405.197 1179.12 405.197C1179.55 405.197 1179.76 405.197 1179.76 405.197V406H1170.93V400.137ZM1160 401.422H1160.57V406H1155.67V405.277H1156.87C1157.78 405.277 1158.53 404.929 1159.12 404.233C1159.71 403.483 1160 402.68 1160 401.823C1160 401.716 1160 401.636 1160 401.582C1160 401.529 1160 401.475 1160 401.422Z" fill="white"/>
<path d="M1200.58 349.777V406H1188.53V349.777H1200.58ZM1221.78 402.546L1223.71 406H1200.33V402.546H1221.78ZM1218.81 376.603V379.977H1200.33V376.603H1218.81ZM1222.74 349.777V353.231H1200.33V349.777H1222.74ZM1227.64 389.535L1223.95 406H1208.21L1211.1 402.546C1213.77 402.546 1216.13 402.038 1218.17 401.02C1220.2 399.949 1221.94 398.45 1223.39 396.522C1224.83 394.541 1225.98 392.212 1226.84 389.535H1227.64ZM1218.81 379.816V387.527H1218V386.884C1218 384.903 1217.36 383.27 1216.08 381.985C1214.79 380.7 1213.16 380.03 1211.18 379.977V379.816H1218.81ZM1218.81 369.053V376.764H1211.18V376.603C1213.16 376.55 1214.79 375.881 1216.08 374.595C1217.36 373.257 1218 371.597 1218 369.616V369.053H1218.81ZM1222.74 352.99V362.387H1221.94V361.423C1221.94 358.96 1221.19 356.979 1219.69 355.48C1218.25 353.98 1216.26 353.204 1213.75 353.15V352.99H1222.74ZM1222.74 348.331V350.661L1212.94 349.777C1214.12 349.777 1215.35 349.697 1216.64 349.536C1217.98 349.375 1219.21 349.188 1220.33 348.974C1221.46 348.76 1222.26 348.545 1222.74 348.331ZM1188.77 400.137V406H1182.34V405.197C1182.34 405.197 1182.5 405.197 1182.83 405.197C1183.2 405.197 1183.39 405.197 1183.39 405.197C1184.78 405.197 1185.96 404.715 1186.92 403.751C1187.94 402.734 1188.47 401.529 1188.53 400.137H1188.77ZM1188.77 355.64H1188.53C1188.47 354.248 1187.94 353.07 1186.92 352.106C1185.96 351.089 1184.78 350.58 1183.39 350.58C1183.39 350.58 1183.2 350.58 1182.83 350.58C1182.5 350.58 1182.34 350.58 1182.34 350.58V349.777H1188.77V355.64Z" fill="white"/>
<path d="M1238.08 348.572L1289.32 397.406L1290.29 407.124L1239.04 358.371L1238.08 348.572ZM1238.48 400.297V406H1231.81V405.197C1231.81 405.197 1232.05 405.197 1232.54 405.197C1233.02 405.197 1233.29 405.197 1233.34 405.197C1234.68 405.197 1235.83 404.715 1236.79 403.751C1237.76 402.787 1238.24 401.636 1238.24 400.297H1238.48ZM1249.72 400.297C1249.72 401.636 1250.21 402.787 1251.17 403.751C1252.13 404.715 1253.29 405.197 1254.62 405.197C1254.68 405.197 1254.95 405.197 1255.43 405.197C1255.91 405.197 1256.15 405.197 1256.15 405.197V406H1249.48V400.297H1249.72ZM1238.08 348.572L1249.64 360.861L1249.72 406H1238.24V358.612C1238.24 355.614 1238.08 353.204 1237.76 351.383C1237.44 349.509 1237.28 348.572 1237.28 348.572H1238.08ZM1290.04 349.777V396.844C1290.04 398.825 1290.13 400.619 1290.29 402.225C1290.45 403.778 1290.61 404.983 1290.77 405.839C1290.93 406.696 1291.01 407.124 1291.01 407.124H1290.29L1278.64 394.113V349.777H1290.04ZM1296.47 349.777V350.58C1296.47 350.58 1296.23 350.58 1295.75 350.58C1295.27 350.58 1295.02 350.58 1295.02 350.58C1293.69 350.58 1292.53 351.062 1291.57 352.026C1290.61 352.936 1290.1 354.087 1290.04 355.48H1289.8V349.777H1296.47ZM1272.13 349.777H1278.8V355.48H1278.64C1278.59 354.087 1278.08 352.936 1277.11 352.026C1276.2 351.062 1275.05 350.58 1273.66 350.58C1273.66 350.58 1273.42 350.58 1272.94 350.58C1272.45 350.58 1272.19 350.58 1272.13 350.58V349.777Z" fill="white"/>
<path d="M1326.86 348.171L1353.12 405.518H1338.67L1321.96 363.672L1326.86 348.171ZM1309.59 400.137C1309.16 401.208 1309.08 402.118 1309.35 402.868C1309.62 403.617 1310.07 404.206 1310.72 404.635C1311.36 405.009 1312 405.197 1312.64 405.197H1313.37V406H1296.18V405.197C1296.18 405.197 1296.31 405.197 1296.58 405.197C1296.79 405.197 1296.9 405.197 1296.9 405.197C1298.13 405.197 1299.39 404.822 1300.68 404.072C1302.02 403.269 1303.11 401.957 1303.97 400.137H1309.59ZM1326.86 348.171L1327.18 357.97L1307.26 405.759H1301.4L1322.2 358.692C1322.36 358.371 1322.63 357.782 1323.01 356.925C1323.43 356.015 1323.86 354.998 1324.29 353.873C1324.77 352.749 1325.2 351.678 1325.58 350.661C1325.95 349.59 1326.14 348.76 1326.14 348.171H1326.86ZM1335.29 386.884V390.258H1311.68V386.884H1335.29ZM1336.5 400.137H1350.55C1351.46 401.957 1352.56 403.269 1353.85 404.072C1355.13 404.822 1356.39 405.197 1357.62 405.197C1357.62 405.197 1357.73 405.197 1357.94 405.197C1358.16 405.197 1358.27 405.197 1358.27 405.197V406H1332.72V405.197H1333.45C1334.52 405.197 1335.45 404.768 1336.26 403.912C1337.06 403.001 1337.14 401.743 1336.5 400.137Z" fill="white"/>
</g>
<defs>
<clipPath id="clip0_11_321">
<rect width="1398.67" height="560" fill="white"/>
</clipPath>
</defs>
</svg>
